<svg fill="#f1f1f1" height="415pt" viewBox="0 -24 415.32856 415" width="415pt" xmlns="http://www.w3.org/2000/svg"><path d="m368.328125 130.164062h-26.390625v-41.644531c-.035156-27.300781-22.15625-49.425781-49.460938-49.457031h-69.386718c-7.964844.003906-15.660156-2.878906-21.664063-8.105469l-22.109375-19.246093c-8.558594-7.445313-19.515625-11.546876-30.859375-11.546876h-99c-27.300781.03125-49.425781 22.15625-49.457031 49.457032v260.753906c.0351562 30.257812 23.714844 55.214844 53.929688 56.839844v.078125h280.203124c22.375-.042969 41.636719-15.820313 46.078126-37.753907l34.167968-143 .058594-.269531c2.726562-13.792969-.871094-28.082031-9.796875-38.945312-8.929687-10.863281-22.25-17.160157-36.3125-17.160157zm-354.324219 180.210938v-260.753906c.023438-19.574219 15.882813-35.433594 35.457032-35.457032h99c7.964843 0 15.660156 2.878907 21.667968 8.109376l22.109375 19.242187c8.554688 7.445313 19.511719 11.546875 30.851563 11.546875h69.386718c19.574219.023438 35.4375 15.886719 35.460938 35.460938v41.640624h-6.652344c-3.394531-18.140624-19.21875-31.300781-37.675781-31.328124h-2.3125c-3.402344-18.515626-19.53125-31.972657-38.359375-32h-161c-25.945312.03125-46.972656 21.054687-47 47v233.378906c-12.976562-7.742188-20.925781-21.734375-20.933594-36.839844zm269.605469-197.539062c10.734375.011718 20.199219 7.046874 23.300781 17.328124h-118.894531c-21.746094-.066406-40.671875 14.847657-45.699219 36.003907l-43.558594 153.8125-.078124.292969c-1.636719 6.957031-4.984376 13.394531-9.742188 18.726562v-193.164062c.019531-18.21875 14.785156-32.980469 33-33zm-234.671875 239.699218v-238.699218c.019531-18.21875 14.785156-32.980469 33-33h161c11.105469.011718 20.878906 7.339843 24 18h-145c-25.945312.027343-46.96875 21.054687-47 47v203.519531c-8.125 3.738281-17.214844 4.847656-26 3.179687zm351.792969-169.109375-34.164063 142.988281-.058594.273438c-3.082031 15.445312-16.628906 26.574219-32.375 26.605469h-239.742187c8.898437-7.78125 15.148437-18.140625 17.878906-29.640625l43.558594-153.808594.078125-.292969c3.488281-14.902343 16.800781-25.429687 32.109375-25.386719h180.3125c9.851563 0 19.183594 4.398438 25.453125 11.996094s8.816406 17.597656 6.949219 27.269532zm0 0"/></svg>