<?xml version="1.0" encoding="iso-8859-1"?>
<!-- Generator: Adobe Illustrator 19.0.0, SVG Export Plug-In . SVG Version: 6.00 Build 0)  -->
<svg version="1.1" fill="#f1f1f1" id="Capa_1" xmlns="http://www.w3.org/2000/svg" xmlns:xlink="http://www.w3.org/1999/xlink" x="0px" y="0px"
	 viewBox="0 0 508 508" style="enable-background:new 0 0 508 508;" xml:space="preserve">
<g>
	<g>
		<g>
			<path d="M508,199.95v-72.1l-37.6-9.4c-1.4-3.9-3-7.8-4.9-11.6l20-33.3l-51-51l-33.3,20c-3.9-1.8-7.8-3.5-11.6-4.9l-9.4-37.6
				h-72.1l-9.4,37.6c-3.9,1.4-7.8,3-11.6,4.9l-33.3-20l-51,51l20,33.3c-1.8,3.9-3.5,7.8-4.9,11.6l-37.6,9.4v37.6h-0.4v16.4h0.4v18.1
				l37.6,9.4c1.4,3.9,3,7.8,4.9,11.6l-20,33.3l51,51l33.3-20c3.9,1.8,7.8,3.5,11.6,4.9l9.4,37.6h18.1v0.4h16.4v-0.4h37.6l9.4-37.6
				c3.9-1.4,7.8-3,11.6-4.9l33.3,20l51-51l-20-33.3c1.8-3.9,3.5-7.8,4.9-11.6L508,199.95z M464.9,251.75l-32.9,32.9l-30.1-18
				l-4.1,2.1c-5.9,3-11.8,5.5-17.7,7.4l-4.3,1.4l-8.5,33.9h-24.8v-0.4h-16.4v0.4h-5.3l-8.5-33.9l-4.3-1.4
				c-5.8-1.9-11.8-4.4-17.7-7.4l-4.1-2.1l-30.1,18l-32.9-32.9l18-30.1l-2.1-4.1c-3-5.8-5.5-11.8-7.4-17.6l-1.4-4.3l-33.9-8.5v-5.3
				h0.4v-16.4h-0.4v-24.8l33.9-8.5l1.4-4.3c1.9-5.8,4.4-11.8,7.4-17.6l2.1-4.1l-18-30.1l32.9-32.9l30.1,18l4.1-2.1
				c5.9-3,11.8-5.5,17.6-7.4l4.3-1.4l8.5-33.9h46.5l8.5,33.9l4.3,1.4c5.8,1.9,11.8,4.4,17.7,7.4l4.1,2.1l30.1-18l33,32.9l-18,30.1
				l2.1,4.1c3,5.9,5.5,11.8,7.4,17.6l1.4,4.3l33.9,8.5v46.5l-33.9,8.5l-1.4,4.3c-1.9,5.9-4.4,11.8-7.4,17.6l-2.1,4.1L464.9,251.75z"
				/>
			<rect x="179.9" y="457.35" width="17.2" height="16.4"/>
			<rect x="76.675" y="414.624" transform="matrix(0.7071 0.7071 -0.7071 0.7071 323.9575 63.5434)" width="17.2" height="16.4"/>
			<rect x="34.3" y="311.05" width="16.4" height="17.2"/>
			<rect x="283.429" y="414.13" transform="matrix(0.7071 0.7071 -0.7071 0.7071 384.3314 -82.3982)" width="16.4" height="17.2"/>
			<rect x="76.659" y="208.258" transform="matrix(0.7071 -0.7071 0.7071 0.7071 -128.0867 123.6863)" width="17.2" height="16.4"/>
			<path d="M370.7,361.85l-4-15.9l-45.8,11.4l-1.4,4.3c-2.2,6.8-5.1,13.8-8.6,20.6l-2.1,4.1l21,35.1l-39.4,39.6l-35.1-21l-4.1,2.1
				c-6.8,3.5-13.8,6.4-20.6,8.6l-4.3,1.4l-9.9,39.6h-55.9l-9.9-39.6l-4.3-1.4c-6.9-2.2-13.8-5.1-20.6-8.6l-4.1-2.1l-35.1,21
				L47,421.55l21-35.1l-2.1-4.1c-3.5-6.9-6.4-13.8-8.6-20.6l-1.4-4.3l-39.6-9.9v-55.9l39.6-9.9l1.4-4.3c2.2-6.8,5.1-13.8,8.6-20.6
				l2.1-4l-21-35.1l39.5-39.5l35.1,21l4.1-2.1c6.8-3.5,13.8-6.4,20.6-8.6l4.3-1.4l11.4-45.8l-15.9-4l-9.3,37
				c-4.9,1.7-9.8,3.8-14.6,6.1l-38.3-23l-57.6,57.6l23,38.3c-2.3,4.9-4.4,9.8-6.1,14.6L0,278.85v81.5l43.2,10.8
				c1.7,4.9,3.8,9.8,6.1,14.6l-23,38.3l57.7,57.6l38.3-23c4.9,2.3,9.7,4.4,14.6,6.1l10.8,43.2h81.5l10.8-43.2
				c4.9-1.7,9.8-3.8,14.6-6.1l38.3,23l57.6-57.6l-23-38.3c2.3-4.9,4.4-9.8,6.1-14.6L370.7,361.85z"/>
			<path d="M181.8,233.75l-1.2-16.3c-53.1,4-94.8,48.9-94.8,102.2c0,56.6,46,102.6,102.6,102.6c53.3,0,98.2-41.6,102.2-94.7
				l-16.3-1.2c-3.4,44.6-41.1,79.6-85.9,79.6c-47.5,0-86.2-38.7-86.2-86.2C102.2,274.85,137.2,237.15,181.8,233.75z"/>
			<path d="M344.1,73.75c-49.7,0-90.1,40.4-90.1,90.1s40.4,90.1,90.1,90.1s90.1-40.4,90.1-90.1
				C434.3,114.25,393.8,73.75,344.1,73.75z M344.1,237.65c-40.7,0-73.7-33.1-73.7-73.7c0-40.6,33.1-73.7,73.7-73.7
				c40.6,0,73.7,33.1,73.7,73.7C417.8,204.55,384.8,237.65,344.1,237.65z"/>
		</g>
	</g>
</g>
<g>
</g>
<g>
</g>
<g>
</g>
<g>
</g>
<g>
</g>
<g>
</g>
<g>
</g>
<g>
</g>
<g>
</g>
<g>
</g>
<g>
</g>
<g>
</g>
<g>
</g>
<g>
</g>
<g>
</g>
</svg>
