<svg height="503pt" viewBox="-33 0 503 503.9995" width="503pt" xmlns="http://www.w3.org/2000/svg"><path d="m4.503906 128 214.773438 124v248l-214.773438-124zm0 0" fill="#fcc24c"/><path d="m434.050781 128-214.773437 124v248l214.773437-124zm0 0" fill="#7bac51"/><path d="m219.277344 4 214.773437 124-214.773437 124-214.773438-124zm0 0" fill="#ff4397"/><path d="m24.503906 387.15625v-247.609375l-20-11.546875v248l35.082032 20.253906zm0 0" fill="#fce06a"/><path d="m414.050781 387.15625v-247.609375l20-11.546875v248l-35.085937 20.253906zm0 0" fill="#5d8e33"/><g fill="#690589"><path d="m219.277344 256c-.691406 0-1.382813-.179688-2-.535156l-214.777344-124c-1.238281-.714844-2-2.039063-2-3.464844 0-1.429688.761719-2.75 2-3.464844l214.777344-124c1.238281-.714844 2.761718-.714844 4 0l214.773437 124c1.238281.714844 2 2.035156 2 3.464844 0 1.425781-.761719 2.75-2 3.464844l-214.773437 124c-.621094.355468-1.308594.535156-2 .535156zm-206.777344-128 206.777344 119.378906 206.773437-119.378906-206.773437-119.378906zm0 0"/><path d="m219.277344 504c-.691406 0-1.382813-.179688-2-.535156l-214.777344-124c-1.238281-.714844-2-2.039063-2-3.464844v-248c0-1.429688.761719-2.75 2-3.464844s2.761719-.714844 4 0l214.777344 124c1.238281.714844 2 2.035156 2 3.464844v248c0 1.429688-.761719 2.75-2 3.464844-.621094.355468-1.308594.535156-2 .535156zm-210.777344-130.308594 206.777344 119.378906v-238.761718l-206.777344-119.382813zm0 0"/><path d="m20.503906 198.34375c-2.210937 0-4-1.789062-4-4v-24c0-2.207031 1.789063-4 4-4 2.207032 0 4 1.792969 4 4v24c0 2.210938-1.792968 4-4 4zm0 0"/><path d="m219.277344 504c-.691406 0-1.382813-.179688-2-.535156-1.238282-.714844-2-2.039063-2-3.464844v-248c0-1.429688.761718-2.75 2-3.464844l214.773437-124c1.238281-.714844 2.761719-.714844 4 0s2 2.035156 2 3.464844v248c0 1.429688-.761719 2.75-2 3.464844l-214.773437 124c-.621094.355468-1.308594.535156-2 .535156zm4-249.691406v238.761718l206.773437-119.378906v-238.765625zm0 0"/><path d="m63.570312 412.867188c-2.207031 0-4-1.792969-4-4v-244.199219c0-2.207031 1.792969-4 4-4 2.207032 0 4 1.792969 4 4v244.199219c0 2.207031-1.789062 4-4 4zm0 0"/><path d="m143.035156 458.410156c-2.207031 0-4-1.792968-4-4v-245.179687c0-2.207031 1.792969-4 4-4 2.210938 0 4 1.792969 4 4v245.179687c0 2.210938-1.789062 4-4 4zm0 0"/><path d="m295.515625 458.410156c-2.207031 0-4-1.792968-4-4v-245.179687c0-2.207031 1.792969-4 4-4s4 1.792969 4 4v245.179687c0 2.210938-1.789063 4-4 4zm0 0"/><path d="m374.980469 412.867188c-2.207031 0-4-1.792969-4-4v-244.199219c0-2.207031 1.792969-4 4-4 2.210937 0 4 1.792969 4 4v244.199219c0 2.207031-1.789063 4-4 4zm0 0"/><path d="m145.15625 211.230469c-1.375 0-2.710938-.707031-3.457031-1.976563-1.117188-1.90625-.476563-4.355468 1.429687-5.472656l211.242188-123.757812c1.898437-1.121094 4.355468-.476563 5.472656 1.429687s.472656 4.355469-1.429688 5.472656l-211.242187 123.757813c-.632813.371094-1.328125.546875-2.015625.546875zm0 0"/><path d="m64.019531 166.667969c-1.375 0-2.710937-.707031-3.457031-1.976563-1.117188-1.90625-.472656-4.355468 1.433594-5.472656l213.199218-124.910156c1.902344-1.117188 4.355469-.476563 5.472657 1.429687 1.117187 1.90625.476562 4.355469-1.429688 5.472657l-213.199219 124.910156c-.636718.371094-1.332031.546875-2.019531.546875zm0 0"/><path d="m295.253906 211.230469c-.691406 0-1.382812-.175781-2.019531-.546875l-211.238281-123.757813c-1.90625-1.117187-2.546875-3.566406-1.433594-5.472656 1.121094-1.90625 3.570312-2.546875 5.472656-1.429687l211.242188 123.757812c1.90625 1.117188 2.546875 3.566406 1.429687 5.472656-.742187 1.273438-2.082031 1.976563-3.453125 1.976563zm0 0"/><path d="m374.390625 166.667969c-.6875 0-1.382813-.175781-2.019531-.546875l-213.199219-124.910156c-1.90625-1.117188-2.546875-3.566407-1.429687-5.472657 1.117187-1.90625 3.566406-2.542969 5.46875-1.429687l213.203124 124.910156c1.90625 1.117188 2.546876 3.566406 1.429688 5.472656-.742188 1.269532-2.082031 1.976563-3.453125 1.976563zm0 0"/><path d="m219.273438 426.113281c-.679688 0-1.367188-.171875-1.996094-.535156l-214.777344-124c-1.914062-1.105469-2.5664062-3.550781-1.464844-5.464844 1.105469-1.914062 3.546875-2.570312 5.464844-1.464843l214.777344 124c1.914062 1.105468 2.566406 3.550781 1.464844 5.464843-.742188 1.28125-2.089844 2-3.46875 2zm0 0"/><path d="m219.273438 344.15625c-.679688 0-1.367188-.171875-1.996094-.535156l-214.777344-124c-1.914062-1.105469-2.5664062-3.550782-1.464844-5.464844 1.105469-1.910156 3.546875-2.570312 5.464844-1.460938l214.777344 124c1.914062 1.105469 2.566406 3.546876 1.464844 5.460938-.742188 1.285156-2.089844 2-3.46875 2zm0 0"/><path d="m219.28125 426.113281c-1.382812 0-2.726562-.714843-3.46875-2-1.105469-1.914062-.449219-4.359375 1.464844-5.464843l214.773437-124c1.910157-1.105469 4.359375-.449219 5.464844 1.464843 1.101563 1.914063.449219 4.359375-1.464844 5.464844l-214.773437 124c-.628906.363281-1.320313.535156-1.996094.535156zm0 0"/><path d="m219.28125 344.15625c-1.382812 0-2.726562-.714844-3.46875-2-1.105469-1.914062-.449219-4.359375 1.464844-5.460938l214.773437-124c1.910157-1.109374 4.359375-.449218 5.464844 1.460938 1.101563 1.914062.449219 4.359375-1.464844 5.464844l-214.773437 124c-.628906.363281-1.320313.535156-1.996094.535156zm0 0"/></g></svg>